{
  "schemaVersion": 2,
  "tempo": 120,
  "loopBars": 45,
  "loopStartTick": 0,
  "loopEndTick": 128,
  "loopEnabled": false,
  "timeSignature": {
    "beats": 4,
    "unit": 4
  },
  "highContrast": false,
  "reverseStrings": false,
  "keyboardStartOctave": 5,
  "guitarTuning": [
    40,
    45,
    50,
    55,
    59,
    64
  ],
  "bassTuning": [
    28,
    33,
    38,
    43
  ],
  "staccatoEnabled": false,
  "key": 0,
  "scale": "major",
  "chordMode": false,
  "tracks": [
    {
      "id": "track-piano",
      "name": "Piano",
      "channel": 0,
      "program": 122,
      "instrumentFamily": "Sound Effects",
      "bankMSB": 0,
      "bankLSB": 0,
      "volume": 0.8,
      "pan": 0,
      "mute": false,
      "solo": false,
      "color": "#4fb7ff",
      "automation": {
        "pan": [],
        "padding": []
      },
      "midiPedals": [
        {
          "id": "pedal_6jbelys",
          "type": "compressor",
          "name": "Neck Snapper",
          "color": "blue",
          "enabled": true,
          "knobs": {
            "threshold": 0,
            "ratio": 0,
            "makeup": 0
          }
        },
        {
          "id": "pedal_48ka0uh",
          "type": "studioEq",
          "name": "Mix Polish",
          "color": "blue",
          "enabled": true,
          "knobs": {
            "lowCut": 0.32,
            "warmth": 0.52,
            "presence": 0.54,
            "air": 0.5
          }
        },
        {
          "id": "pedal_48aa3cb",
          "type": "pitchPhaser",
          "name": "Pitch Phaser",
          "color": "yellow",
          "enabled": true,
          "knobs": {
            "down": 0.6,
            "up": 0.6,
            "phase": 0.5
          }
        },
        null
      ],
      "patterns": [
        {
          "id": "pattern-piano",
          "bars": 45,
          "notes": [
            {
              "id": "note-493581",
              "startTick": 2,
              "durationTicks": 2,
              "pitch": 88,
              "velocity": 0.8818897637795275
            },
            {
              "id": "note-995454",
              "startTick": 12,
              "durationTicks": 2,
              "pitch": 95,
              "velocity": 0.8818897637795275
            },
            {
              "id": "note-75865",
              "startTick": 14,
              "durationTicks": 2,
              "pitch": 88,
              "velocity": 0.8818897637795275
            },
            {
              "id": "note-868009",
              "startTick": 18,
              "durationTicks": 2,
              "pitch": 93,
              "velocity": 0.8818897637795275
            },
            {
              "id": "note-711302",
              "startTick": 24,
              "durationTicks": 2,
              "pitch": 95,
              "velocity": 0.8818897637795275
            },
            {
              "id": "note-99918",
              "startTick": 26,
              "durationTicks": 2,
              "pitch": 88,
              "velocity": 0.8818897637795275
            },
            {
              "id": "note-858688",
              "startTick": 28,
              "durationTicks": 2,
              "pitch": 93,
              "velocity": 0.8818897637795275
            },
            {
              "id": "note-757989",
              "startTick": 32,
              "durationTicks": 2,
              "pitch": 91,
              "velocity": 0.8818897637795275
            },
            {
              "id": "note-940692",
              "startTick": 32,
              "durationTicks": 1,
              "pitch": 93,
              "velocity": 0.8818897637795275
            },
            {
              "id": "note-623950",
              "startTick": 32,
              "durationTicks": 2,
              "pitch": 88,
              "velocity": 0.8818897637795275
            },
            {
              "id": "note-382142",
              "startTick": 34,
              "durationTicks": 2,
              "pitch": 95,
              "velocity": 0.8818897637795275
            },
            {
              "id": "note-813610",
              "startTick": 38,
              "durationTicks": 1,
              "pitch": 95,
              "velocity": 0.8818897637795275
            },
            {
              "id": "note-166216",
              "startTick": 38,
              "durationTicks": 2,
              "pitch": 88,
              "velocity": 0.8818897637795275
            },
            {
              "id": "note-839039",
              "startTick": 38,
              "durationTicks": 2,
              "pitch": 93,
              "velocity": 0.8818897637795275
            },
            {
              "id": "note-600903",
              "startTick": 42,
              "durationTicks": 1,
              "pitch": 91,
              "velocity": 0.8818897637795275
            },
            {
              "id": "note-242318",
              "startTick": 42,
              "durationTicks": 2,
              "pitch": 88,
              "velocity": 0.8818897637795275
            },
            {
              "id": "note-956683",
              "startTick": 44,
              "durationTicks": 2,
              "pitch": 95,
              "velocity": 0.8818897637795275
            },
            {
              "id": "note-812449",
              "startTick": 46,
              "durationTicks": 2,
              "pitch": 88,
              "velocity": 0.8818897637795275
            },
            {
              "id": "note-185156",
              "startTick": 48,
              "durationTicks": 2,
              "pitch": 95,
              "velocity": 0.8818897637795275
            },
            {
              "id": "note-367872",
              "startTick": 50,
              "durationTicks": 2,
              "pitch": 91,
              "velocity": 0.8818897637795275
            },
            {
              "id": "note-323926",
              "startTick": 52,
              "durationTicks": 2,
              "pitch": 86,
              "velocity": 0.8818897637795275
            },
            {
              "id": "note-771170",
              "startTick": 58,
              "durationTicks": 2,
              "pitch": 88,
              "velocity": 0.8818897637795275
            },
            {
              "id": "note-785739",
              "startTick": 64,
              "durationTicks": 2,
              "pitch": 95,
              "velocity": 0.8818897637795275
            },
            {
              "id": "note-442015",
              "startTick": 66,
              "durationTicks": 2,
              "pitch": 88,
              "velocity": 0.8818897637795275
            },
            {
              "id": "note-846722",
              "startTick": 68,
              "durationTicks": 2,
              "pitch": 95,
              "velocity": 0.8818897637795275
            },
            {
              "id": "note-509492",
              "startTick": 76,
              "durationTicks": 2,
              "pitch": 88,
              "velocity": 0.8818897637795275
            },
            {
              "id": "note-339694",
              "startTick": 78,
              "durationTicks": 2,
              "pitch": 95,
              "velocity": 0.8818897637795275
            },
            {
              "id": "note-958446",
              "startTick": 82,
              "durationTicks": 2,
              "pitch": 88,
              "velocity": 0.8818897637795275
            },
            {
              "id": "note-653624",
              "startTick": 84,
              "durationTicks": 2,
              "pitch": 96,
              "velocity": 0.8818897637795275
            },
            {
              "id": "note-269383",
              "startTick": 86,
              "durationTicks": 2,
              "pitch": 88,
              "velocity": 0.8818897637795275
            },
            {
              "id": "note-65760",
              "startTick": 90,
              "durationTicks": 2,
              "pitch": 96,
              "velocity": 0.8818897637795275
            },
            {
              "id": "note-380554",
              "startTick": 92,
              "durationTicks": 1,
              "pitch": 95,
              "velocity": 0.8818897637795275
            },
            {
              "id": "note-186074",
              "startTick": 92,
              "durationTicks": 2,
              "pitch": 89,
              "velocity": 0.8818897637795275
            },
            {
              "id": "note-949776",
              "startTick": 94,
              "durationTicks": 1,
              "pitch": 93,
              "velocity": 0.8818897637795275
            },
            {
              "id": "note-261232",
              "startTick": 96,
              "durationTicks": 2,
              "pitch": 88,
              "velocity": 0.8818897637795275
            },
            {
              "id": "note-328822",
              "startTick": 98,
              "durationTicks": 1,
              "pitch": 95,
              "velocity": 0.8818897637795275
            },
            {
              "id": "note-598975",
              "startTick": 100,
              "durationTicks": 1,
              "pitch": 95,
              "velocity": 0.8818897637795275
            },
            {
              "id": "note-561648",
              "startTick": 100,
              "durationTicks": 2,
              "pitch": 88,
              "velocity": 0.8818897637795275
            },
            {
              "id": "note-266044",
              "startTick": 104,
              "durationTicks": 2,
              "pitch": 93,
              "velocity": 0.8818897637795275
            },
            {
              "id": "note-849670",
              "startTick": 106,
              "durationTicks": 1,
              "pitch": 91,
              "velocity": 0.8818897637795275
            },
            {
              "id": "note-822168",
              "startTick": 108,
              "durationTicks": 2,
              "pitch": 88,
              "velocity": 0.8818897637795275
            },
            {
              "id": "note-805614",
              "startTick": 110,
              "durationTicks": 2,
              "pitch": 95,
              "velocity": 0.8818897637795275
            },
            {
              "id": "note-24225",
              "startTick": 114,
              "durationTicks": 2,
              "pitch": 93,
              "velocity": 0.8818897637795275
            },
            {
              "id": "note-910295",
              "startTick": 114,
              "durationTicks": 2,
              "pitch": 88,
              "velocity": 0.8818897637795275
            },
            {
              "id": "note-216583",
              "startTick": 124,
              "durationTicks": 2,
              "pitch": 93,
              "velocity": 0.8818897637795275
            },
            {
              "id": "note-472661",
              "startTick": 132,
              "durationTicks": 2,
              "pitch": 95,
              "velocity": 0.8818897637795275
            },
            {
              "id": "note-669576",
              "startTick": 134,
              "durationTicks": 2,
              "pitch": 88,
              "velocity": 0.8818897637795275
            },
            {
              "id": "note-267928",
              "startTick": 136,
              "durationTicks": 2,
              "pitch": 93,
              "velocity": 0.8818897637795275
            },
            {
              "id": "note-963681",
              "startTick": 138,
              "durationTicks": 2,
              "pitch": 93,
              "velocity": 0.8818897637795275
            },
            {
              "id": "note-572140",
              "startTick": 138,
              "durationTicks": 2,
              "pitch": 88,
              "velocity": 0.8818897637795275
            },
            {
              "id": "note-7424",
              "startTick": 142,
              "durationTicks": 2,
              "pitch": 95,
              "velocity": 0.8818897637795275
            },
            {
              "id": "note-477559",
              "startTick": 144,
              "durationTicks": 2,
              "pitch": 88,
              "velocity": 0.8818897637795275
            },
            {
              "id": "note-985421",
              "startTick": 144,
              "durationTicks": 2,
              "pitch": 95,
              "velocity": 0.8818897637795275
            },
            {
              "id": "note-878797",
              "startTick": 148,
              "durationTicks": 2,
              "pitch": 88,
              "velocity": 0.8818897637795275
            },
            {
              "id": "note-778072",
              "startTick": 148,
              "durationTicks": 2,
              "pitch": 93,
              "velocity": 0.8818897637795275
            },
            {
              "id": "note-181577",
              "startTick": 150,
              "durationTicks": 2,
              "pitch": 93,
              "velocity": 0.8818897637795275
            },
            {
              "id": "note-388073",
              "startTick": 152,
              "durationTicks": 2,
              "pitch": 88,
              "velocity": 0.8818897637795275
            },
            {
              "id": "note-307605",
              "startTick": 154,
              "durationTicks": 2,
              "pitch": 95,
              "velocity": 0.8818897637795275
            },
            {
              "id": "note-210952",
              "startTick": 156,
              "durationTicks": 1,
              "pitch": 86,
              "velocity": 0.8818897637795275
            },
            {
              "id": "note-565817",
              "startTick": 156,
              "durationTicks": 2,
              "pitch": 88,
              "velocity": 0.8818897637795275
            },
            {
              "id": "note-81659",
              "startTick": 158,
              "durationTicks": 1,
              "pitch": 86,
              "velocity": 0.8818897637795275
            },
            {
              "id": "note-537463",
              "startTick": 158,
              "durationTicks": 2,
              "pitch": 95,
              "velocity": 0.8818897637795275
            },
            {
              "id": "note-550848",
              "startTick": 160,
              "durationTicks": 2,
              "pitch": 91,
              "velocity": 0.8818897637795275
            },
            {
              "id": "note-415511",
              "startTick": 162,
              "durationTicks": 2,
              "pitch": 88,
              "velocity": 0.8818897637795275
            },
            {
              "id": "note-923663",
              "startTick": 164,
              "durationTicks": 1,
              "pitch": 95,
              "velocity": 0.8818897637795275
            },
            {
              "id": "note-877275",
              "startTick": 166,
              "durationTicks": 2,
              "pitch": 95,
              "velocity": 0.8818897637795275
            },
            {
              "id": "note-665318",
              "startTick": 168,
              "durationTicks": 2,
              "pitch": 86,
              "velocity": 0.8818897637795275
            },
            {
              "id": "note-324762",
              "startTick": 170,
              "durationTicks": 2,
              "pitch": 93,
              "velocity": 0.8818897637795275
            },
            {
              "id": "note-929692",
              "startTick": 174,
              "durationTicks": 2,
              "pitch": 88,
              "velocity": 0.8818897637795275
            },
            {
              "id": "note-217431",
              "startTick": 180,
              "durationTicks": 2,
              "pitch": 88,
              "velocity": 0.8818897637795275
            },
            {
              "id": "note-554507",
              "startTick": 184,
              "durationTicks": 2,
              "pitch": 94,
              "velocity": 0.8818897637795275
            },
            {
              "id": "note-138117",
              "startTick": 186,
              "durationTicks": 2,
              "pitch": 88,
              "velocity": 0.8818897637795275
            },
            {
              "id": "note-560721",
              "startTick": 192,
              "durationTicks": 2,
              "pitch": 88,
              "velocity": 0.8818897637795275
            },
            {
              "id": "note-467470",
              "startTick": 194,
              "durationTicks": 2,
              "pitch": 95,
              "velocity": 0.8818897637795275
            },
            {
              "id": "note-318982",
              "startTick": 196,
              "durationTicks": 2,
              "pitch": 88,
              "velocity": 0.8818897637795275
            },
            {
              "id": "note-709788",
              "startTick": 198,
              "durationTicks": 2,
              "pitch": 95,
              "velocity": 0.8818897637795275
            },
            {
              "id": "note-631959",
              "startTick": 200,
              "durationTicks": 2,
              "pitch": 88,
              "velocity": 0.8818897637795275
            },
            {
              "id": "note-337015",
              "startTick": 202,
              "durationTicks": 1,
              "pitch": 93,
              "velocity": 0.8818897637795275
            },
            {
              "id": "note-173751",
              "startTick": 204,
              "durationTicks": 1,
              "pitch": 95,
              "velocity": 0.8818897637795275
            },
            {
              "id": "note-212967",
              "startTick": 206,
              "durationTicks": 2,
              "pitch": 87,
              "velocity": 0.8818897637795275
            },
            {
              "id": "note-508815",
              "startTick": 206,
              "durationTicks": 1,
              "pitch": 95,
              "velocity": 0.8818897637795275
            },
            {
              "id": "note-517458",
              "startTick": 208,
              "durationTicks": 1,
              "pitch": 95,
              "velocity": 0.8818897637795275
            },
            {
              "id": "note-64498",
              "startTick": 210,
              "durationTicks": 1,
              "pitch": 86,
              "velocity": 0.8818897637795275
            },
            {
              "id": "note-41241",
              "startTick": 210,
              "durationTicks": 2,
              "pitch": 88,
              "velocity": 0.8818897637795275
            },
            {
              "id": "note-990677",
              "startTick": 212,
              "durationTicks": 1,
              "pitch": 93,
              "velocity": 0.8818897637795275
            },
            {
              "id": "note-299620",
              "startTick": 216,
              "durationTicks": 2,
              "pitch": 88,
              "velocity": 0.8818897637795275
            },
            {
              "id": "note-146484",
              "startTick": 218,
              "durationTicks": 2,
              "pitch": 95,
              "velocity": 0.8818897637795275
            },
            {
              "id": "note-518299",
              "startTick": 224,
              "durationTicks": 2,
              "pitch": 88,
              "velocity": 0.8818897637795275
            },
            {
              "id": "note-870535",
              "startTick": 224,
              "durationTicks": 2,
              "pitch": 93,
              "velocity": 0.8818897637795275
            },
            {
              "id": "note-356743",
              "startTick": 228,
              "durationTicks": 2,
              "pitch": 88,
              "velocity": 0.8818897637795275
            },
            {
              "id": "note-122954",
              "startTick": 228,
              "durationTicks": 2,
              "pitch": 93,
              "velocity": 0.8818897637795275
            },
            {
              "id": "note-957689",
              "startTick": 232,
              "durationTicks": 2,
              "pitch": 94,
              "velocity": 0.8818897637795275
            },
            {
              "id": "note-189753",
              "startTick": 232,
              "durationTicks": 2,
              "pitch": 88,
              "velocity": 0.8818897637795275
            },
            {
              "id": "note-76354",
              "startTick": 234,
              "durationTicks": 2,
              "pitch": 95,
              "velocity": 0.8818897637795275
            },
            {
              "id": "note-999591",
              "startTick": 236,
              "durationTicks": 2,
              "pitch": 88,
              "velocity": 0.8818897637795275
            },
            {
              "id": "note-602729",
              "startTick": 238,
              "durationTicks": 1,
              "pitch": 93,
              "velocity": 0.8818897637795275
            },
            {
              "id": "note-372722",
              "startTick": 242,
              "durationTicks": 2,
              "pitch": 88,
              "velocity": 0.8818897637795275
            },
            {
              "id": "note-61532",
              "startTick": 246,
              "durationTicks": 2,
              "pitch": 95,
              "velocity": 0.8818897637795275
            },
            {
              "id": "note-685182",
              "startTick": 246,
              "durationTicks": 1,
              "pitch": 94,
              "velocity": 0.8818897637795275
            },
            {
              "id": "note-935989",
              "startTick": 252,
              "durationTicks": 2,
              "pitch": 88,
              "velocity": 0.8818897637795275
            },
            {
              "id": "note-783245",
              "startTick": 254,
              "durationTicks": 2,
              "pitch": 94,
              "velocity": 0.8818897637795275
            },
            {
              "id": "note-513538",
              "startTick": 256,
              "durationTicks": 2,
              "pitch": 86,
              "velocity": 0.8818897637795275
            },
            {
              "id": "note-539821",
              "startTick": 258,
              "durationTicks": 2,
              "pitch": 95,
              "velocity": 0.8818897637795275
            },
            {
              "id": "note-361777",
              "startTick": 260,
              "durationTicks": 2,
              "pitch": 88,
              "velocity": 0.8818897637795275
            },
            {
              "id": "note-523880",
              "startTick": 264,
              "durationTicks": 2,
              "pitch": 93,
              "velocity": 0.8818897637795275
            },
            {
              "id": "note-812771",
              "startTick": 278,
              "durationTicks": 2,
              "pitch": 88,
              "velocity": 0.8818897637795275
            },
            {
              "id": "note-744335",
              "startTick": 280,
              "durationTicks": 2,
              "pitch": 93,
              "velocity": 0.8818897637795275
            },
            {
              "id": "note-21290",
              "startTick": 282,
              "durationTicks": 2,
              "pitch": 88,
              "velocity": 0.8818897637795275
            },
            {
              "id": "note-848412",
              "startTick": 284,
              "durationTicks": 2,
              "pitch": 93,
              "velocity": 0.8818897637795275
            },
            {
              "id": "note-482012",
              "startTick": 288,
              "durationTicks": 1,
              "pitch": 95,
              "velocity": 0.8818897637795275
            },
            {
              "id": "note-116835",
              "startTick": 288,
              "durationTicks": 2,
              "pitch": 87,
              "velocity": 0.8818897637795275
            },
            {
              "id": "note-607289",
              "startTick": 294,
              "durationTicks": 2,
              "pitch": 93,
              "velocity": 0.8818897637795275
            },
            {
              "id": "note-566268",
              "startTick": 292,
              "durationTicks": 2,
              "pitch": 88,
              "velocity": 0.8818897637795275
            },
            {
              "id": "note-708282",
              "startTick": 298,
              "durationTicks": 1,
              "pitch": 94,
              "velocity": 0.8818897637795275
            },
            {
              "id": "note-431104",
              "startTick": 298,
              "durationTicks": 1,
              "pitch": 93,
              "velocity": 0.8818897637795275
            },
            {
              "id": "note-666181",
              "startTick": 298,
              "durationTicks": 1,
              "pitch": 94,
              "velocity": 0.8818897637795275
            },
            {
              "id": "note-201614",
              "startTick": 298,
              "durationTicks": 2,
              "pitch": 88,
              "velocity": 0.8818897637795275
            },
            {
              "id": "note-581738",
              "startTick": 300,
              "durationTicks": 2,
              "pitch": 95,
              "velocity": 0.8818897637795275
            },
            {
              "id": "note-328395",
              "startTick": 304,
              "durationTicks": 2,
              "pitch": 88,
              "velocity": 0.8818897637795275
            },
            {
              "id": "note-177710",
              "startTick": 304,
              "durationTicks": 2,
              "pitch": 95,
              "velocity": 0.8818897637795275
            },
            {
              "id": "note-360118",
              "startTick": 306,
              "durationTicks": 2,
              "pitch": 88,
              "velocity": 0.8818897637795275
            },
            {
              "id": "note-474287",
              "startTick": 306,
              "durationTicks": 2,
              "pitch": 95,
              "velocity": 0.8818897637795275
            },
            {
              "id": "note-697509",
              "startTick": 310,
              "durationTicks": 2,
              "pitch": 94,
              "velocity": 0.8818897637795275
            },
            {
              "id": "note-330158",
              "startTick": 310,
              "durationTicks": 1,
              "pitch": 93,
              "velocity": 0.8818897637795275
            },
            {
              "id": "note-271405",
              "startTick": 312,
              "durationTicks": 2,
              "pitch": 88,
              "velocity": 0.8818897637795275
            },
            {
              "id": "note-665698",
              "startTick": 312,
              "durationTicks": 2,
              "pitch": 93,
              "velocity": 0.8818897637795275
            },
            {
              "id": "note-917420",
              "startTick": 314,
              "durationTicks": 2,
              "pitch": 88,
              "velocity": 0.8818897637795275
            },
            {
              "id": "note-940161",
              "startTick": 316,
              "durationTicks": 2,
              "pitch": 95,
              "velocity": 0.8818897637795275
            },
            {
              "id": "note-375239",
              "startTick": 320,
              "durationTicks": 2,
              "pitch": 95,
              "velocity": 0.8818897637795275
            },
            {
              "id": "note-838196",
              "startTick": 322,
              "durationTicks": 2,
              "pitch": 87,
              "velocity": 0.8818897637795275
            },
            {
              "id": "note-318564",
              "startTick": 324,
              "durationTicks": 2,
              "pitch": 95,
              "velocity": 0.8818897637795275
            },
            {
              "id": "note-710474",
              "startTick": 326,
              "durationTicks": 2,
              "pitch": 88,
              "velocity": 0.8818897637795275
            },
            {
              "id": "note-244119",
              "startTick": 328,
              "durationTicks": 2,
              "pitch": 95,
              "velocity": 0.8818897637795275
            },
            {
              "id": "note-612593",
              "startTick": 330,
              "durationTicks": 2,
              "pitch": 93,
              "velocity": 0.8818897637795275
            },
            {
              "id": "note-111611",
              "startTick": 334,
              "durationTicks": 2,
              "pitch": 95,
              "velocity": 0.8818897637795275
            },
            {
              "id": "note-269074",
              "startTick": 336,
              "durationTicks": 2,
              "pitch": 88,
              "velocity": 0.8818897637795275
            },
            {
              "id": "note-868046",
              "startTick": 338,
              "durationTicks": 2,
              "pitch": 95,
              "velocity": 0.8818897637795275
            },
            {
              "id": "note-502661",
              "startTick": 340,
              "durationTicks": 2,
              "pitch": 87,
              "velocity": 0.8818897637795275
            },
            {
              "id": "note-415111",
              "startTick": 340,
              "durationTicks": 1,
              "pitch": 96,
              "velocity": 0.8818897637795275
            },
            {
              "id": "note-117634",
              "startTick": 342,
              "durationTicks": 1,
              "pitch": 86,
              "velocity": 0.8818897637795275
            },
            {
              "id": "note-154332",
              "startTick": 342,
              "durationTicks": 2,
              "pitch": 96,
              "velocity": 0.8818897637795275
            },
            {
              "id": "note-790771",
              "startTick": 344,
              "durationTicks": 2,
              "pitch": 86,
              "velocity": 0.8818897637795275
            },
            {
              "id": "note-644893",
              "startTick": 344,
              "durationTicks": 2,
              "pitch": 96,
              "velocity": 0.8818897637795275
            },
            {
              "id": "note-940290",
              "startTick": 348,
              "durationTicks": 2,
              "pitch": 93,
              "velocity": 0.8818897637795275
            },
            {
              "id": "note-169328",
              "startTick": 350,
              "durationTicks": 2,
              "pitch": 88,
              "velocity": 0.8818897637795275
            },
            {
              "id": "note-508333",
              "startTick": 352,
              "durationTicks": 2,
              "pitch": 95,
              "velocity": 0.8818897637795275
            },
            {
              "id": "note-562042",
              "startTick": 354,
              "durationTicks": 1,
              "pitch": 87,
              "velocity": 0.8818897637795275
            },
            {
              "id": "note-567629",
              "startTick": 354,
              "durationTicks": 2,
              "pitch": 88,
              "velocity": 0.8818897637795275
            },
            {
              "id": "note-68692",
              "startTick": 356,
              "durationTicks": 1,
              "pitch": 87,
              "velocity": 0.8818897637795275
            },
            {
              "id": "note-801335",
              "startTick": 356,
              "durationTicks": 2,
              "pitch": 95,
              "velocity": 0.8818897637795275
            },
            {
              "id": "note-495987",
              "startTick": 358,
              "durationTicks": 2,
              "pitch": 86,
              "velocity": 0.8818897637795275
            },
            {
              "id": "note-40269",
              "startTick": 358,
              "durationTicks": 2,
              "pitch": 94,
              "velocity": 0.8818897637795275
            },
            {
              "id": "note-140041",
              "startTick": 360,
              "durationTicks": 2,
              "pitch": 94,
              "velocity": 0.8818897637795275
            },
            {
              "id": "note-933004",
              "startTick": 362,
              "durationTicks": 1,
              "pitch": 93,
              "velocity": 0.8818897637795275
            },
            {
              "id": "note-133455",
              "startTick": 362,
              "durationTicks": 1,
              "pitch": 95,
              "velocity": 0.8818897637795275
            },
            {
              "id": "note-160906",
              "startTick": 364,
              "durationTicks": 2,
              "pitch": 95,
              "velocity": 0.8818897637795275
            },
            {
              "id": "note-436877",
              "startTick": 368,
              "durationTicks": 2,
              "pitch": 88,
              "velocity": 0.8818897637795275
            },
            {
              "id": "note-27207",
              "startTick": 370,
              "durationTicks": 1,
              "pitch": 95,
              "velocity": 0.8818897637795275
            },
            {
              "id": "note-200517",
              "startTick": 370,
              "durationTicks": 2,
              "pitch": 94,
              "velocity": 0.8818897637795275
            },
            {
              "id": "note-21695",
              "startTick": 372,
              "durationTicks": 2,
              "pitch": 88,
              "velocity": 0.8818897637795275
            },
            {
              "id": "note-832554",
              "startTick": 374,
              "durationTicks": 1,
              "pitch": 94,
              "velocity": 0.8818897637795275
            },
            {
              "id": "note-405385",
              "startTick": 376,
              "durationTicks": 2,
              "pitch": 95,
              "velocity": 0.8818897637795275
            },
            {
              "id": "note-166825",
              "startTick": 378,
              "durationTicks": 2,
              "pitch": 87,
              "velocity": 0.8818897637795275
            },
            {
              "id": "note-231731",
              "startTick": 382,
              "durationTicks": 2,
              "pitch": 88,
              "velocity": 0.8818897637795275
            },
            {
              "id": "note-81588",
              "startTick": 384,
              "durationTicks": 2,
              "pitch": 95,
              "velocity": 0.8818897637795275
            },
            {
              "id": "note-723287",
              "startTick": 386,
              "durationTicks": 2,
              "pitch": 89,
              "velocity": 0.8818897637795275
            },
            {
              "id": "note-961494",
              "startTick": 398,
              "durationTicks": 2,
              "pitch": 95,
              "velocity": 0.8818897637795275
            },
            {
              "id": "note-126956",
              "startTick": 404,
              "durationTicks": 2,
              "pitch": 88,
              "velocity": 0.8818897637795275
            },
            {
              "id": "note-42374",
              "startTick": 406,
              "durationTicks": 2,
              "pitch": 93,
              "velocity": 0.8818897637795275
            },
            {
              "id": "note-514884",
              "startTick": 410,
              "durationTicks": 2,
              "pitch": 95,
              "velocity": 0.8818897637795275
            },
            {
              "id": "note-735758",
              "startTick": 410,
              "durationTicks": 2,
              "pitch": 87,
              "velocity": 0.8818897637795275
            },
            {
              "id": "note-291904",
              "startTick": 414,
              "durationTicks": 2,
              "pitch": 95,
              "velocity": 0.8818897637795275
            },
            {
              "id": "note-396664",
              "startTick": 416,
              "durationTicks": 2,
              "pitch": 88,
              "velocity": 0.8818897637795275
            },
            {
              "id": "note-311774",
              "startTick": 416,
              "durationTicks": 2,
              "pitch": 94,
              "velocity": 0.8818897637795275
            },
            {
              "id": "note-645663",
              "startTick": 420,
              "durationTicks": 2,
              "pitch": 93,
              "velocity": 0.8818897637795275
            },
            {
              "id": "note-373656",
              "startTick": 422,
              "durationTicks": 1,
              "pitch": 94,
              "velocity": 0.8818897637795275
            },
            {
              "id": "note-775783",
              "startTick": 420,
              "durationTicks": 2,
              "pitch": 88,
              "velocity": 0.8818897637795275
            },
            {
              "id": "note-167822",
              "startTick": 424,
              "durationTicks": 2,
              "pitch": 95,
              "velocity": 0.8818897637795275
            },
            {
              "id": "note-238501",
              "startTick": 424,
              "durationTicks": 2,
              "pitch": 88,
              "velocity": 0.8818897637795275
            },
            {
              "id": "note-119616",
              "startTick": 426,
              "durationTicks": 2,
              "pitch": 96,
              "velocity": 0.8818897637795275
            },
            {
              "id": "note-858503",
              "startTick": 428,
              "durationTicks": 2,
              "pitch": 89,
              "velocity": 0.8818897637795275
            },
            {
              "id": "note-310404",
              "startTick": 432,
              "durationTicks": 2,
              "pitch": 95,
              "velocity": 0.8818897637795275
            },
            {
              "id": "note-208226",
              "startTick": 434,
              "durationTicks": 1,
              "pitch": 93,
              "velocity": 0.8818897637795275
            },
            {
              "id": "note-936384",
              "startTick": 434,
              "durationTicks": 2,
              "pitch": 88,
              "velocity": 0.8818897637795275
            },
            {
              "id": "note-793076",
              "startTick": 434,
              "durationTicks": 1,
              "pitch": 92,
              "velocity": 0.8818897637795275
            },
            {
              "id": "note-207473",
              "startTick": 438,
              "durationTicks": 2,
              "pitch": 88,
              "velocity": 0.8818897637795275
            },
            {
              "id": "note-556540",
              "startTick": 442,
              "durationTicks": 1,
              "pitch": 95,
              "velocity": 0.8818897637795275
            },
            {
              "id": "note-375048",
              "startTick": 450,
              "durationTicks": 2,
              "pitch": 93,
              "velocity": 0.8818897637795275
            },
            {
              "id": "note-897816",
              "startTick": 454,
              "durationTicks": 2,
              "pitch": 88,
              "velocity": 0.8818897637795275
            },
            {
              "id": "note-911924",
              "startTick": 1082,
              "durationTicks": 2,
              "pitch": 93,
              "velocity": 0.8818897637795275
            },
            {
              "id": "note-747771",
              "startTick": 1082,
              "durationTicks": 2,
              "pitch": 88,
              "velocity": 0.8818897637795275
            },
            {
              "id": "note-989912",
              "startTick": 1092,
              "durationTicks": 2,
              "pitch": 93,
              "velocity": 0.8818897637795275
            },
            {
              "id": "note-490194",
              "startTick": 1100,
              "durationTicks": 2,
              "pitch": 95,
              "velocity": 0.8818897637795275
            },
            {
              "id": "note-314133",
              "startTick": 1102,
              "durationTicks": 2,
              "pitch": 88,
              "velocity": 0.8818897637795275
            },
            {
              "id": "note-632753",
              "startTick": 1104,
              "durationTicks": 2,
              "pitch": 93,
              "velocity": 0.8818897637795275
            },
            {
              "id": "note-58579",
              "startTick": 1106,
              "durationTicks": 2,
              "pitch": 93,
              "velocity": 0.8818897637795275
            },
            {
              "id": "note-36981",
              "startTick": 1106,
              "durationTicks": 2,
              "pitch": 88,
              "velocity": 0.8818897637795275
            },
            {
              "id": "note-187144",
              "startTick": 1110,
              "durationTicks": 2,
              "pitch": 95,
              "velocity": 0.8818897637795275
            },
            {
              "id": "note-277958",
              "startTick": 1112,
              "durationTicks": 2,
              "pitch": 88,
              "velocity": 0.8818897637795275
            },
            {
              "id": "note-583448",
              "startTick": 1112,
              "durationTicks": 2,
              "pitch": 95,
              "velocity": 0.8818897637795275
            },
            {
              "id": "note-588110",
              "startTick": 1116,
              "durationTicks": 2,
              "pitch": 88,
              "velocity": 0.8818897637795275
            },
            {
              "id": "note-401935",
              "startTick": 1116,
              "durationTicks": 2,
              "pitch": 93,
              "velocity": 0.8818897637795275
            },
            {
              "id": "note-19114",
              "startTick": 1118,
              "durationTicks": 2,
              "pitch": 93,
              "velocity": 0.8818897637795275
            },
            {
              "id": "note-87901",
              "startTick": 1120,
              "durationTicks": 2,
              "pitch": 88,
              "velocity": 0.8818897637795275
            },
            {
              "id": "note-106947",
              "startTick": 1122,
              "durationTicks": 2,
              "pitch": 95,
              "velocity": 0.8818897637795275
            },
            {
              "id": "note-819064",
              "startTick": 1124,
              "durationTicks": 1,
              "pitch": 86,
              "velocity": 0.8818897637795275
            },
            {
              "id": "note-609352",
              "startTick": 1124,
              "durationTicks": 2,
              "pitch": 88,
              "velocity": 0.8818897637795275
            },
            {
              "id": "note-107166",
              "startTick": 1126,
              "durationTicks": 1,
              "pitch": 86,
              "velocity": 0.8818897637795275
            },
            {
              "id": "note-13218",
              "startTick": 1126,
              "durationTicks": 2,
              "pitch": 95,
              "velocity": 0.8818897637795275
            },
            {
              "id": "note-231513",
              "startTick": 1128,
              "durationTicks": 2,
              "pitch": 91,
              "velocity": 0.8818897637795275
            },
            {
              "id": "note-864401",
              "startTick": 1130,
              "durationTicks": 2,
              "pitch": 88,
              "velocity": 0.8818897637795275
            },
            {
              "id": "note-609246",
              "startTick": 1132,
              "durationTicks": 1,
              "pitch": 95,
              "velocity": 0.8818897637795275
            },
            {
              "id": "note-871852",
              "startTick": 1134,
              "durationTicks": 2,
              "pitch": 95,
              "velocity": 0.8818897637795275
            },
            {
              "id": "note-504267",
              "startTick": 1136,
              "durationTicks": 2,
              "pitch": 86,
              "velocity": 0.8818897637795275
            },
            {
              "id": "note-172075",
              "startTick": 1138,
              "durationTicks": 2,
              "pitch": 93,
              "velocity": 0.8818897637795275
            },
            {
              "id": "note-447376",
              "startTick": 1142,
              "durationTicks": 2,
              "pitch": 88,
              "velocity": 0.8818897637795275
            },
            {
              "id": "note-286307",
              "startTick": 1148,
              "durationTicks": 2,
              "pitch": 88,
              "velocity": 0.8818897637795275
            },
            {
              "id": "note-662559",
              "startTick": 1152,
              "durationTicks": 2,
              "pitch": 94,
              "velocity": 0.8818897637795275
            },
            {
              "id": "note-863785",
              "startTick": 1154,
              "durationTicks": 2,
              "pitch": 88,
              "velocity": 0.8818897637795275
            },
            {
              "id": "note-895954",
              "startTick": 1160,
              "durationTicks": 2,
              "pitch": 88,
              "velocity": 0.8818897637795275
            },
            {
              "id": "note-584254",
              "startTick": 1162,
              "durationTicks": 2,
              "pitch": 95,
              "velocity": 0.8818897637795275
            },
            {
              "id": "note-165686",
              "startTick": 1164,
              "durationTicks": 2,
              "pitch": 88,
              "velocity": 0.8818897637795275
            },
            {
              "id": "note-113398",
              "startTick": 1166,
              "durationTicks": 2,
              "pitch": 95,
              "velocity": 0.8818897637795275
            },
            {
              "id": "note-207523",
              "startTick": 1168,
              "durationTicks": 2,
              "pitch": 88,
              "velocity": 0.8818897637795275
            },
            {
              "id": "note-746776",
              "startTick": 1170,
              "durationTicks": 1,
              "pitch": 93,
              "velocity": 0.8818897637795275
            },
            {
              "id": "note-334927",
              "startTick": 1172,
              "durationTicks": 1,
              "pitch": 95,
              "velocity": 0.8818897637795275
            },
            {
              "id": "note-982739",
              "startTick": 1174,
              "durationTicks": 2,
              "pitch": 87,
              "velocity": 0.8818897637795275
            },
            {
              "id": "note-239604",
              "startTick": 1174,
              "durationTicks": 1,
              "pitch": 95,
              "velocity": 0.8818897637795275
            },
            {
              "id": "note-994006",
              "startTick": 1176,
              "durationTicks": 1,
              "pitch": 95,
              "velocity": 0.8818897637795275
            },
            {
              "id": "note-434561",
              "startTick": 1178,
              "durationTicks": 1,
              "pitch": 86,
              "velocity": 0.8818897637795275
            },
            {
              "id": "note-617109",
              "startTick": 1178,
              "durationTicks": 2,
              "pitch": 88,
              "velocity": 0.8818897637795275
            },
            {
              "id": "note-216573",
              "startTick": 1180,
              "durationTicks": 1,
              "pitch": 93,
              "velocity": 0.8818897637795275
            },
            {
              "id": "note-139207",
              "startTick": 1184,
              "durationTicks": 2,
              "pitch": 88,
              "velocity": 0.8818897637795275
            },
            {
              "id": "note-695597",
              "startTick": 1186,
              "durationTicks": 2,
              "pitch": 95,
              "velocity": 0.8818897637795275
            },
            {
              "id": "note-321795",
              "startTick": 1192,
              "durationTicks": 2,
              "pitch": 88,
              "velocity": 0.8818897637795275
            },
            {
              "id": "note-837685",
              "startTick": 1192,
              "durationTicks": 2,
              "pitch": 93,
              "velocity": 0.8818897637795275
            },
            {
              "id": "note-312994",
              "startTick": 1196,
              "durationTicks": 2,
              "pitch": 88,
              "velocity": 0.8818897637795275
            },
            {
              "id": "note-307024",
              "startTick": 1196,
              "durationTicks": 2,
              "pitch": 93,
              "velocity": 0.8818897637795275
            },
            {
              "id": "note-810723",
              "startTick": 1200,
              "durationTicks": 2,
              "pitch": 94,
              "velocity": 0.8818897637795275
            },
            {
              "id": "note-476336",
              "startTick": 1200,
              "durationTicks": 2,
              "pitch": 88,
              "velocity": 0.8818897637795275
            },
            {
              "id": "note-226524",
              "startTick": 1202,
              "durationTicks": 2,
              "pitch": 95,
              "velocity": 0.8818897637795275
            },
            {
              "id": "note-45337",
              "startTick": 1204,
              "durationTicks": 2,
              "pitch": 88,
              "velocity": 0.8818897637795275
            },
            {
              "id": "note-937556",
              "startTick": 1206,
              "durationTicks": 1,
              "pitch": 93,
              "velocity": 0.8818897637795275
            },
            {
              "id": "note-46963",
              "startTick": 1210,
              "durationTicks": 2,
              "pitch": 88,
              "velocity": 0.8818897637795275
            },
            {
              "id": "note-568582",
              "startTick": 1214,
              "durationTicks": 2,
              "pitch": 95,
              "velocity": 0.8818897637795275
            },
            {
              "id": "note-173796",
              "startTick": 1214,
              "durationTicks": 1,
              "pitch": 94,
              "velocity": 0.8818897637795275
            },
            {
              "id": "note-850461",
              "startTick": 1220,
              "durationTicks": 2,
              "pitch": 88,
              "velocity": 0.8818897637795275
            },
            {
              "id": "note-817001",
              "startTick": 1222,
              "durationTicks": 2,
              "pitch": 94,
              "velocity": 0.8818897637795275
            },
            {
              "id": "note-49565",
              "startTick": 1224,
              "durationTicks": 2,
              "pitch": 86,
              "velocity": 0.8818897637795275
            },
            {
              "id": "note-906920",
              "startTick": 1226,
              "durationTicks": 2,
              "pitch": 95,
              "velocity": 0.8818897637795275
            },
            {
              "id": "note-676782",
              "startTick": 1228,
              "durationTicks": 2,
              "pitch": 88,
              "velocity": 0.8818897637795275
            },
            {
              "id": "note-541711",
              "startTick": 1232,
              "durationTicks": 2,
              "pitch": 93,
              "velocity": 0.8818897637795275
            },
            {
              "id": "note-817661",
              "startTick": 1246,
              "durationTicks": 2,
              "pitch": 88,
              "velocity": 0.8818897637795275
            },
            {
              "id": "note-153936",
              "startTick": 1248,
              "durationTicks": 2,
              "pitch": 93,
              "velocity": 0.8818897637795275
            },
            {
              "id": "note-436136",
              "startTick": 1250,
              "durationTicks": 2,
              "pitch": 88,
              "velocity": 0.8818897637795275
            },
            {
              "id": "note-851898",
              "startTick": 1252,
              "durationTicks": 2,
              "pitch": 93,
              "velocity": 0.8818897637795275
            },
            {
              "id": "note-925333",
              "startTick": 1256,
              "durationTicks": 1,
              "pitch": 95,
              "velocity": 0.8818897637795275
            },
            {
              "id": "note-48024",
              "startTick": 1256,
              "durationTicks": 2,
              "pitch": 87,
              "velocity": 0.8818897637795275
            },
            {
              "id": "note-147198",
              "startTick": 1262,
              "durationTicks": 2,
              "pitch": 93,
              "velocity": 0.8818897637795275
            },
            {
              "id": "note-787300",
              "startTick": 1260,
              "durationTicks": 2,
              "pitch": 88,
              "velocity": 0.8818897637795275
            },
            {
              "id": "note-95214",
              "startTick": 1266,
              "durationTicks": 1,
              "pitch": 94,
              "velocity": 0.8818897637795275
            },
            {
              "id": "note-636132",
              "startTick": 1266,
              "durationTicks": 1,
              "pitch": 93,
              "velocity": 0.8818897637795275
            },
            {
              "id": "note-802374",
              "startTick": 1266,
              "durationTicks": 1,
              "pitch": 94,
              "velocity": 0.8818897637795275
            },
            {
              "id": "note-252972",
              "startTick": 1266,
              "durationTicks": 2,
              "pitch": 88,
              "velocity": 0.8818897637795275
            },
            {
              "id": "note-54899",
              "startTick": 1268,
              "durationTicks": 2,
              "pitch": 95,
              "velocity": 0.8818897637795275
            },
            {
              "id": "note-551758",
              "startTick": 1272,
              "durationTicks": 2,
              "pitch": 88,
              "velocity": 0.8818897637795275
            },
            {
              "id": "note-810319",
              "startTick": 1272,
              "durationTicks": 2,
              "pitch": 95,
              "velocity": 0.8818897637795275
            },
            {
              "id": "note-259023",
              "startTick": 1274,
              "durationTicks": 2,
              "pitch": 88,
              "velocity": 0.8818897637795275
            },
            {
              "id": "note-676353",
              "startTick": 1274,
              "durationTicks": 2,
              "pitch": 95,
              "velocity": 0.8818897637795275
            },
            {
              "id": "note-230813",
              "startTick": 1278,
              "durationTicks": 2,
              "pitch": 94,
              "velocity": 0.8818897637795275
            },
            {
              "id": "note-198605",
              "startTick": 1278,
              "durationTicks": 1,
              "pitch": 93,
              "velocity": 0.8818897637795275
            },
            {
              "id": "note-482279",
              "startTick": 1280,
              "durationTicks": 2,
              "pitch": 88,
              "velocity": 0.8818897637795275
            },
            {
              "id": "note-788449",
              "startTick": 1280,
              "durationTicks": 2,
              "pitch": 93,
              "velocity": 0.8818897637795275
            },
            {
              "id": "note-505804",
              "startTick": 1282,
              "durationTicks": 2,
              "pitch": 88,
              "velocity": 0.8818897637795275
            },
            {
              "id": "note-399813",
              "startTick": 1284,
              "durationTicks": 2,
              "pitch": 95,
              "velocity": 0.8818897637795275
            },
            {
              "id": "note-721892",
              "startTick": 1288,
              "durationTicks": 2,
              "pitch": 95,
              "velocity": 0.8818897637795275
            },
            {
              "id": "note-734360",
              "startTick": 1290,
              "durationTicks": 2,
              "pitch": 87,
              "velocity": 0.8818897637795275
            },
            {
              "id": "note-376787",
              "startTick": 1292,
              "durationTicks": 2,
              "pitch": 95,
              "velocity": 0.8818897637795275
            },
            {
              "id": "note-103418",
              "startTick": 1294,
              "durationTicks": 2,
              "pitch": 88,
              "velocity": 0.8818897637795275
            },
            {
              "id": "note-479864",
              "startTick": 1296,
              "durationTicks": 2,
              "pitch": 95,
              "velocity": 0.8818897637795275
            },
            {
              "id": "note-303508",
              "startTick": 1298,
              "durationTicks": 2,
              "pitch": 93,
              "velocity": 0.8818897637795275
            },
            {
              "id": "note-833128",
              "startTick": 1302,
              "durationTicks": 2,
              "pitch": 95,
              "velocity": 0.8818897637795275
            },
            {
              "id": "note-836856",
              "startTick": 1304,
              "durationTicks": 2,
              "pitch": 88,
              "velocity": 0.8818897637795275
            },
            {
              "id": "note-602270",
              "startTick": 1306,
              "durationTicks": 2,
              "pitch": 95,
              "velocity": 0.8818897637795275
            },
            {
              "id": "note-921638",
              "startTick": 1308,
              "durationTicks": 2,
              "pitch": 87,
              "velocity": 0.8818897637795275
            },
            {
              "id": "note-985790",
              "startTick": 1308,
              "durationTicks": 1,
              "pitch": 96,
              "velocity": 0.8818897637795275
            },
            {
              "id": "note-257134",
              "startTick": 1310,
              "durationTicks": 1,
              "pitch": 86,
              "velocity": 0.8818897637795275
            },
            {
              "id": "note-362466",
              "startTick": 1310,
              "durationTicks": 2,
              "pitch": 96,
              "velocity": 0.8818897637795275
            },
            {
              "id": "note-121003",
              "startTick": 1312,
              "durationTicks": 2,
              "pitch": 86,
              "velocity": 0.8818897637795275
            },
            {
              "id": "note-518079",
              "startTick": 1312,
              "durationTicks": 2,
              "pitch": 96,
              "velocity": 0.8818897637795275
            },
            {
              "id": "note-874418",
              "startTick": 1316,
              "durationTicks": 2,
              "pitch": 93,
              "velocity": 0.8818897637795275
            },
            {
              "id": "note-804669",
              "startTick": 1318,
              "durationTicks": 2,
              "pitch": 88,
              "velocity": 0.8818897637795275
            },
            {
              "id": "note-887640",
              "startTick": 1320,
              "durationTicks": 2,
              "pitch": 95,
              "velocity": 0.8818897637795275
            },
            {
              "id": "note-945424",
              "startTick": 1322,
              "durationTicks": 1,
              "pitch": 87,
              "velocity": 0.8818897637795275
            },
            {
              "id": "note-242032",
              "startTick": 1322,
              "durationTicks": 2,
              "pitch": 88,
              "velocity": 0.8818897637795275
            },
            {
              "id": "note-58136",
              "startTick": 1324,
              "durationTicks": 1,
              "pitch": 87,
              "velocity": 0.8818897637795275
            },
            {
              "id": "note-552207",
              "startTick": 1324,
              "durationTicks": 2,
              "pitch": 95,
              "velocity": 0.8818897637795275
            },
            {
              "id": "note-768315",
              "startTick": 1326,
              "durationTicks": 2,
              "pitch": 86,
              "velocity": 0.8818897637795275
            },
            {
              "id": "note-169657",
              "startTick": 1326,
              "durationTicks": 2,
              "pitch": 94,
              "velocity": 0.8818897637795275
            },
            {
              "id": "note-510341",
              "startTick": 1328,
              "durationTicks": 2,
              "pitch": 94,
              "velocity": 0.8818897637795275
            },
            {
              "id": "note-210414",
              "startTick": 1330,
              "durationTicks": 1,
              "pitch": 93,
              "velocity": 0.8818897637795275
            },
            {
              "id": "note-22528",
              "startTick": 1330,
              "durationTicks": 1,
              "pitch": 95,
              "velocity": 0.8818897637795275
            },
            {
              "id": "note-507120",
              "startTick": 1332,
              "durationTicks": 2,
              "pitch": 95,
              "velocity": 0.8818897637795275
            },
            {
              "id": "note-194518",
              "startTick": 1336,
              "durationTicks": 2,
              "pitch": 88,
              "velocity": 0.8818897637795275
            },
            {
              "id": "note-495488",
              "startTick": 1338,
              "durationTicks": 1,
              "pitch": 95,
              "velocity": 0.8818897637795275
            },
            {
              "id": "note-723314",
              "startTick": 1338,
              "durationTicks": 2,
              "pitch": 94,
              "velocity": 0.8818897637795275
            },
            {
              "id": "note-831893",
              "startTick": 1340,
              "durationTicks": 2,
              "pitch": 88,
              "velocity": 0.8818897637795275
            },
            {
              "id": "note-704928",
              "startTick": 1342,
              "durationTicks": 1,
              "pitch": 94,
              "velocity": 0.8818897637795275
            },
            {
              "id": "note-789015",
              "startTick": 1344,
              "durationTicks": 2,
              "pitch": 95,
              "velocity": 0.8818897637795275
            },
            {
              "id": "note-940717",
              "startTick": 1346,
              "durationTicks": 2,
              "pitch": 87,
              "velocity": 0.8818897637795275
            },
            {
              "id": "note-769074",
              "startTick": 1350,
              "durationTicks": 2,
              "pitch": 88,
              "velocity": 0.8818897637795275
            },
            {
              "id": "note-944354",
              "startTick": 1352,
              "durationTicks": 2,
              "pitch": 95,
              "velocity": 0.8818897637795275
            },
            {
              "id": "note-531619",
              "startTick": 1354,
              "durationTicks": 2,
              "pitch": 89,
              "velocity": 0.8818897637795275
            },
            {
              "id": "note-192982",
              "startTick": 1366,
              "durationTicks": 2,
              "pitch": 95,
              "velocity": 0.8818897637795275
            },
            {
              "id": "note-444227",
              "startTick": 1372,
              "durationTicks": 2,
              "pitch": 88,
              "velocity": 0.8818897637795275
            },
            {
              "id": "note-423642",
              "startTick": 1374,
              "durationTicks": 2,
              "pitch": 93,
              "velocity": 0.8818897637795275
            },
            {
              "id": "note-987361",
              "startTick": 1378,
              "durationTicks": 2,
              "pitch": 95,
              "velocity": 0.8818897637795275
            },
            {
              "id": "note-535613",
              "startTick": 1378,
              "durationTicks": 2,
              "pitch": 87,
              "velocity": 0.8818897637795275
            },
            {
              "id": "note-358983",
              "startTick": 1382,
              "durationTicks": 2,
              "pitch": 95,
              "velocity": 0.8818897637795275
            },
            {
              "id": "note-630836",
              "startTick": 1384,
              "durationTicks": 2,
              "pitch": 88,
              "velocity": 0.8818897637795275
            },
            {
              "id": "note-182880",
              "startTick": 1384,
              "durationTicks": 2,
              "pitch": 94,
              "velocity": 0.8818897637795275
            },
            {
              "id": "note-196454",
              "startTick": 1388,
              "durationTicks": 2,
              "pitch": 93,
              "velocity": 0.8818897637795275
            },
            {
              "id": "note-23432",
              "startTick": 1390,
              "durationTicks": 1,
              "pitch": 94,
              "velocity": 0.8818897637795275
            },
            {
              "id": "note-733161",
              "startTick": 1388,
              "durationTicks": 2,
              "pitch": 88,
              "velocity": 0.8818897637795275
            },
            {
              "id": "note-125492",
              "startTick": 1392,
              "durationTicks": 2,
              "pitch": 95,
              "velocity": 0.8818897637795275
            },
            {
              "id": "note-360192",
              "startTick": 1392,
              "durationTicks": 2,
              "pitch": 88,
              "velocity": 0.8818897637795275
            },
            {
              "id": "note-319572",
              "startTick": 1394,
              "durationTicks": 2,
              "pitch": 96,
              "velocity": 0.8818897637795275
            },
            {
              "id": "note-275053",
              "startTick": 1396,
              "durationTicks": 2,
              "pitch": 89,
              "velocity": 0.8818897637795275
            },
            {
              "id": "note-41096",
              "startTick": 1400,
              "durationTicks": 2,
              "pitch": 95,
              "velocity": 0.8818897637795275
            },
            {
              "id": "note-747706",
              "startTick": 1402,
              "durationTicks": 1,
              "pitch": 93,
              "velocity": 0.8818897637795275
            },
            {
              "id": "note-354531",
              "startTick": 1402,
              "durationTicks": 2,
              "pitch": 88,
              "velocity": 0.8818897637795275
            },
            {
              "id": "note-470659",
              "startTick": 1402,
              "durationTicks": 1,
              "pitch": 92,
              "velocity": 0.8818897637795275
            },
            {
              "id": "note-121621",
              "startTick": 1406,
              "durationTicks": 2,
              "pitch": 88,
              "velocity": 0.8818897637795275
            },
            {
              "id": "note-138988",
              "startTick": 1410,
              "durationTicks": 1,
              "pitch": 95,
              "velocity": 0.8818897637795275
            },
            {
              "id": "note-221507",
              "startTick": 1418,
              "durationTicks": 2,
              "pitch": 93,
              "velocity": 0.8818897637795275
            },
            {
              "id": "note-552114",
              "startTick": 1422,
              "durationTicks": 2,
              "pitch": 88,
              "velocity": 0.8818897637795275
            }
          ],
          "partRanges": [
            {
              "startTick": 0,
              "endTick": 512
            },
            {
              "startTick": 1080,
              "endTick": 1424
            }
          ],
          "partBoundaries": [],
          "partRangeStart": null,
          "partRangeEnd": null
        }
      ]
    },
    {
      "id": "track-guitar",
      "name": "Guitar",
      "channel": 1,
      "program": 24,
      "instrumentFamily": "Guitar",
      "bankMSB": 0,
      "bankLSB": 0,
      "volume": 0.8,
      "pan": 0,
      "mute": false,
      "solo": false,
      "color": "#ff9c42",
      "automation": {
        "pan": [],
        "padding": []
      },
      "midiPedals": [
        null,
        null,
        null,
        null
      ],
      "patterns": [
        {
          "id": "pattern-guitar",
          "bars": 45,
          "notes": []
        }
      ]
    },
    {
      "id": "track-bass",
      "name": "Bass",
      "channel": 2,
      "program": 33,
      "instrumentFamily": "Bass",
      "bankMSB": 0,
      "bankLSB": 0,
      "volume": 0.8,
      "pan": 0,
      "mute": false,
      "solo": false,
      "color": "#55d68a",
      "automation": {
        "pan": [],
        "padding": []
      },
      "midiPedals": [
        null,
        null,
        null,
        null
      ],
      "patterns": [
        {
          "id": "pattern-bass",
          "bars": 45,
          "notes": []
        }
      ]
    },
    {
      "id": "track-drums",
      "name": "Drums",
      "instrument": "drums",
      "channel": 9,
      "program": 0,
      "instrumentFamily": "Drums",
      "bankMSB": 127,
      "bankLSB": 0,
      "volume": 0.9,
      "pan": 0,
      "mute": false,
      "solo": false,
      "color": "#b48dff",
      "automation": {
        "pan": [],
        "padding": []
      },
      "midiPedals": [
        null,
        null,
        null,
        null
      ],
      "patterns": [
        {
          "id": "pattern-drums",
          "bars": 45,
          "notes": []
        }
      ]
    }
  ],
  "progression": [
    {
      "root": 0,
      "quality": "min",
      "startBar": 1,
      "lengthBars": 1
    },
    {
      "root": 5,
      "quality": "min",
      "startBar": 2,
      "lengthBars": 1
    },
    {
      "root": 7,
      "quality": "maj",
      "startBar": 3,
      "lengthBars": 1
    },
    {
      "root": 3,
      "quality": "maj",
      "startBar": 4,
      "lengthBars": 1
    }
  ],
  "name": "KeyboardTyping",
  "editorState": {
    "midiComposer": {
      "trackViewports": {
        "track-piano": {
          "trackId": "track-piano",
          "trackName": "Piano",
          "updatedAt": 1781063940699,
          "grid": {
            "gridOffset": {
              "x": -672,
              "y": -1764
            },
            "timelineStartTick": 923.5891787790716,
            "gridZoomX": 3.75,
            "gridZoomY": 0.9,
            "cursorTick": 0,
            "cursorPitch": 60,
            "selectedPatternIndex": 0
          },
          "song": {
            "songTimelineOffsetX": -620.5364794921887,
            "songTrackScroll": 0,
            "timelineStartTick": 923.5891787790716,
            "gridZoomX": 3.75,
            "selectedTrackIndex": 0
          }
        }
      },
      "lastTrackId": "track-piano",
      "lastTab": "song"
    }
  }
}